<svg width="97" height="28" fill="none" xmlns="http://www.w3.org/2000/svg"><path d="M.437 4.78V0h19.33v4.78h-6.69v17.074H7.126V4.78H.436ZM31.284 14.683v-9.22h5.995v16.39h-5.69v-3.115h-.175c-.362 1.046-.995 1.864-1.9 2.454-.905.583-1.98.875-3.225.875-1.166 0-2.187-.263-3.063-.79a5.452 5.452 0 0 1-2.03-2.176c-.478-.925-.72-1.985-.728-3.18V5.463h5.994v9.22c.008.81.218 1.448.63 1.91.42.462 1.007.694 1.76.694.499 0 .93-.104 1.292-.31.369-.213.651-.512.847-.896.203-.391.3-.857.293-1.398ZM46.933 0v21.854H40.94V0h5.994ZM54.248 28c-.688 0-1.343-.053-1.965-.16a8.42 8.42 0 0 1-1.64-.416l1.303-4.183c.492.17.941.28 1.346.33.413.05.764.022 1.054-.085.297-.106.51-.31.64-.608l.13-.299-5.863-17.116h6.255L58.2 16.817h.174L61.11 5.463h6.299L61.329 23.22a7.811 7.811 0 0 1-1.325 2.433c-.572.726-1.325 1.299-2.26 1.718-.933.42-2.099.63-3.496.63ZM69.727 28V5.463h5.95v2.86h.13a4.933 4.933 0 0 1 .957-1.526c.42-.47.94-.843 1.563-1.12.623-.285 1.347-.427 2.172-.427 1.1 0 2.147.288 3.139.864.999.577 1.81 1.484 2.432 2.721.63 1.238.945 2.846.945 4.823 0 1.893-.3 3.461-.901 4.706-.594 1.245-1.39 2.174-2.39 2.785a6.106 6.106 0 0 1-3.268.918c-.782 0-1.48-.124-2.096-.373a4.843 4.843 0 0 1-1.564-1.035 4.777 4.777 0 0 1-.988-1.494h-.087V28h-5.994Zm5.864-14.341c0 .796.105 1.486.315 2.07.217.576.52 1.024.912 1.344.398.313.872.47 1.422.47.55 0 1.018-.153 1.401-.46.391-.312.688-.757.89-1.333.21-.583.316-1.28.316-2.091 0-.811-.105-1.505-.315-2.081-.203-.584-.5-1.028-.89-1.334-.384-.313-.851-.47-1.401-.47s-1.025.157-1.423.47c-.391.306-.695.75-.912 1.334-.21.576-.315 1.27-.315 2.08ZM93.396 22.195c-.84 0-1.56-.288-2.161-.864a2.83 2.83 0 0 1-.88-2.124c-.007-.81.286-1.504.88-2.08a3.012 3.012 0 0 1 2.16-.865c.797 0 1.5.288 2.108.864.615.577.926 1.27.933 2.081a2.836 2.836 0 0 1-.445 1.516 3.25 3.25 0 0 1-1.107 1.077 2.925 2.925 0 0 1-1.488.395Z" fill="#111827"/></svg>