<svg width="119" height="22" viewBox="0 0 119 22" fill="none" xmlns="http://www.w3.org/2000/svg">
<path fill-rule="evenodd" clip-rule="evenodd" d="M22 6.4C22 4.15979 22 3.03968 21.564 2.18404C21.1805 1.43139 20.5686 0.819467 19.816 0.435974C18.9603 0 17.8402 0 15.6 0H6.4C4.15979 0 3.03968 0 2.18404 0.435974C1.43139 0.819467 0.819467 1.43139 0.435974 2.18404C0 3.03968 0 4.15979 0 6.4V15.6C0 17.8402 0 18.9603 0.435974 19.816C0.819467 20.5686 1.43139 21.1805 2.18404 21.564C3.03968 22 4.15979 22 6.4 22H15.6C17.8402 22 18.9603 22 19.816 21.564C20.5686 21.1805 21.1805 20.5686 21.564 19.816C22 18.9603 22 17.8402 22 15.6V6.4ZM20.625 11C20.625 16.3157 16.3157 20.625 11 20.625C5.68426 20.625 1.375 16.3157 1.375 11C1.375 5.68426 5.68426 1.375 11 1.375C16.3157 1.375 20.625 5.68426 20.625 11Z" fill="#111827"/>
<path fill-rule="evenodd" clip-rule="evenodd" d="M11 22C17.0751 22 22 17.0751 22 11C22 4.92487 17.0751 0 11 0C4.92487 0 0 4.92487 0 11C0 17.0751 4.92487 22 11 22ZM11 18.3333C15.0501 18.3333 18.3333 15.0501 18.3333 11C18.3333 6.94991 15.0501 3.66667 11 3.66667C6.94991 3.66667 3.66667 6.94991 3.66667 11C3.66667 15.0501 6.94991 18.3333 11 18.3333Z" fill="#111827"/>
<path fill-rule="evenodd" clip-rule="evenodd" d="M11.4584 3.6665H10.5417V7.36154C8.73298 7.58708 7.33337 9.13001 7.33337 10.9998C7.33337 12.8697 8.73298 14.4126 10.5417 14.6381V18.3332H11.4584V14.6381C13.2671 14.4126 14.6667 12.8697 14.6667 10.9998C14.6667 9.13001 13.2671 7.58708 11.4584 7.36154V3.6665Z" fill="#111827"/>
<path d="M33.2394 9.67387H35.8921C35.8537 7.34078 33.9361 5.72998 31.0213 5.72998C28.1513 5.72998 26.0483 7.31521 26.0611 9.69305C26.0547 11.6234 27.4162 12.7293 29.6279 13.2598L31.0533 13.6178C32.4787 13.9629 33.2713 14.372 33.2777 15.2541C33.2713 16.2129 32.3637 16.8649 30.9574 16.8649C29.5192 16.8649 28.4837 16.2002 28.3942 14.8898H25.7159C25.7863 17.7215 27.8125 19.1852 30.9894 19.1852C34.1854 19.1852 36.0647 17.6575 36.0711 15.2605C36.0647 13.0808 34.4219 11.9239 32.1463 11.4125L30.9702 11.1313C29.8324 10.8692 28.88 10.4473 28.8992 9.50768C28.8992 8.66393 29.6471 8.0439 31.0022 8.0439C32.3253 8.0439 33.1371 8.64475 33.2394 9.67387Z" fill="#1F2937"/>
<path d="M38.0616 18.9999H40.7846V13.1064C40.7846 12.0198 41.475 11.2975 42.3826 11.2975C43.2775 11.2975 43.8784 11.9111 43.8784 12.8763V18.9999H46.5183V13.0041C46.5183 11.9878 47.1 11.2975 48.0907 11.2975C48.96 11.2975 49.612 11.8408 49.612 12.9338V18.9999H52.3286V12.3969C52.3286 10.2683 51.063 9.05384 49.2349 9.05384C47.7967 9.05384 46.6781 9.78893 46.2754 10.9139H46.1731C45.8599 9.77615 44.8563 9.05384 43.5076 9.05384C42.1845 9.05384 41.1809 9.75697 40.7718 10.9139H40.6568V9.18169H38.0616V18.9999Z" fill="#1F2937"/>
<path d="M57.4593 19.1852C58.9103 19.1852 59.8499 18.5524 60.3293 17.6384H60.406V18.9999H62.9884V12.3777C62.9884 10.0382 61.0069 9.05384 58.8208 9.05384C56.4685 9.05384 54.9216 10.1788 54.5445 11.9686L57.063 12.1732C57.2483 11.5212 57.83 11.0418 58.808 11.0418C59.7349 11.0418 60.2654 11.5084 60.2654 12.3138V12.3521C60.2654 12.985 59.5942 13.068 57.8876 13.2342C55.9444 13.4132 54.1993 14.0652 54.1993 16.2577C54.1993 18.2009 55.5864 19.1852 57.4593 19.1852ZM58.2391 17.306C57.4018 17.306 56.8009 16.9161 56.8009 16.1682C56.8009 15.4011 57.4337 15.024 58.3925 14.8898C58.987 14.8067 59.9586 14.6661 60.2846 14.4487V15.4906C60.2846 16.5198 59.4344 17.306 58.2391 17.306Z" fill="#1F2937"/>
<path d="M65.281 18.9999H68.004V13.4452C68.004 12.2371 68.8861 11.4061 70.0878 11.4061C70.4649 11.4061 70.9827 11.47 71.2384 11.5531V9.13694C70.9955 9.07941 70.6567 9.04106 70.3818 9.04106C69.2824 9.04106 68.3811 9.68026 68.0232 10.8948H67.9209V9.18169H65.281V18.9999Z" fill="#1F2937"/>
<path d="M78.5407 9.18169H76.6934V6.82941H73.9704V9.18169H72.6281V11.2271H73.9704V16.3408C73.9576 18.2648 75.268 19.2172 77.2431 19.1341C77.9462 19.1085 78.4448 18.9679 78.7197 18.8784L78.2914 16.8521C78.1572 16.8777 77.8695 16.9416 77.6139 16.9416C77.0705 16.9416 76.6934 16.7371 76.6934 15.9828V11.2271H78.5407V9.18169Z" fill="#1F2937"/>
<path d="M80.4945 18.9999H83.2175V13.4452C83.2175 12.2371 84.0996 11.4061 85.3013 11.4061C85.6784 11.4061 86.1962 11.47 86.4519 11.5531V9.13694C86.209 9.07941 85.8702 9.04106 85.5953 9.04106C84.4959 9.04106 83.5946 9.68026 83.2367 10.8948H83.1344V9.18169H80.4945V18.9999Z" fill="#1F2937"/>
<path d="M90.5582 19.1852C92.0092 19.1852 92.9488 18.5524 93.4282 17.6384H93.5049V18.9999H96.0873V12.3777C96.0873 10.0382 94.1058 9.05384 91.9197 9.05384C89.5674 9.05384 88.0206 10.1788 87.6434 11.9686L90.1619 12.1732C90.3473 11.5212 90.9289 11.0418 91.9069 11.0418C92.8338 11.0418 93.3643 11.5084 93.3643 12.3138V12.3521C93.3643 12.985 92.6931 13.068 90.9865 13.2342C89.0433 13.4132 87.2983 14.0652 87.2983 16.2577C87.2983 18.2009 88.6853 19.1852 90.5582 19.1852ZM91.338 17.306C90.5007 17.306 89.8998 16.9161 89.8998 16.1682C89.8998 15.4011 90.5326 15.024 91.4914 14.8898C92.0859 14.8067 93.0575 14.6661 93.3835 14.4487V15.4906C93.3835 16.5198 92.5333 17.306 91.338 17.306Z" fill="#1F2937"/>
<path d="M101.998 19.1597C103.583 19.1597 104.408 18.2456 104.785 17.4274H104.9V18.9999H107.584V5.90896H104.868V10.8308H104.785C104.42 10.0318 103.634 9.05384 101.991 9.05384C99.8373 9.05384 98.0155 10.7286 98.0155 14.1036C98.0155 17.3891 99.7606 19.1597 101.998 19.1597ZM102.861 16.9928C101.525 16.9928 100.796 15.8038 100.796 14.0908C100.796 12.3905 101.512 11.2207 102.861 11.2207C104.184 11.2207 104.925 12.3394 104.925 14.0908C104.925 15.8422 104.171 16.9928 102.861 16.9928Z" fill="#1F2937"/>
<path d="M114.478 19.1916C116.907 19.1916 118.543 18.0091 118.927 16.1874L116.408 16.0212C116.133 16.769 115.43 17.159 114.522 17.159C113.161 17.159 112.298 16.2577 112.298 14.7939V14.7875H118.984V14.0396C118.984 10.703 116.964 9.05384 114.369 9.05384C111.48 9.05384 109.607 11.1057 109.607 14.1355C109.607 17.2484 111.454 19.1916 114.478 19.1916ZM112.298 13.1C112.356 11.9814 113.206 11.0865 114.414 11.0865C115.596 11.0865 116.414 11.9303 116.421 13.1H112.298Z" fill="#1F2937"/>
</svg>
